<svg xmlns="http://www.w3.org/2000/svg" width="118.649" height="127.357" viewBox="0 0 118.649 127.357">
  <path id="Path_1" data-name="Path 1" d="M82,94c30.012,0,.074.186,82,0,9.313.885,22.089,5.527,22.618,12.089.63,7.822-28.012,15.034-15.618,25.911l.129.126C183.977,144.62,191.407,138.657,199,147c4.638,4.446-.825,16.233-12.382,17.021-9.516.648-29.05-13.186-32.562-5.117-3.552,8.161,6.139,18.675,7.272,30.7,1.86,19.746,2.552,30.025-7.272,31.512-13.634,2.063-13.84-9.523-28.36-26.1C115.285,183.137,82,176,82,176Z" transform="translate(-82 -94)" fill="#1f80ff"/>
</svg>
